<mxfile host="app.diagrams.net" modified="2024-02-21T19:27:05.307Z" agent="Mozilla/5.0 (Windows NT 10.0; Win64; x64) AppleWebKit/537.36 (KHTML, like Gecko) Chrome/121.0.0.0 Safari/537.36" version="23.1.5" etag="hNuEvq3tPOArAhQTr6FP" type="github">
  <diagram name="Page-1" id="9r2AmBHXtacko7QXaNh4">
    <mxGraphModel>
      <root>
        <mxCell id="0" />
        <mxCell id="1" parent="0" />
      </root>
    </mxGraphModel>
  </diagram>
</mxfile>
